{"title":"Straponcum.com - 3. Room Mates","uid":7573255,"size":989744815,"categoryP":"porn","categoryS":"movie_clips","magnet":"?xt=urn:btih:1794ab156af9b4c62557fdc5299595e61c908912&amp;dn=Straponcum.com+-+3.+Room+Mates&amp;tr=udp%3A%2F%2Ftracker.openbittorrent.com%3A80&amp;tr=udp%3A%2F%2Fopen.demonii.com%3A1337&amp;tr=udp%3A%2F%2Ftracker.coppersurfer.tk%3A6969&amp;tr=udp%3A%2F%2Fexodus.desync.com%3A6969","seeders":0,"leechers":2,"uploader":"pspxxx","files":1,"time":1346049221,"description":"Straponcum.com - 3. Room Mates\n\n\n3. Room Mates\n\nThree friends are sitting around the apartment bored and horny. They cannot resist the urge to kiss and fondle each other. One friend has a big, juicy surprise. It is a strap on that shoots cum! Once she has the strap on in place, she is quickly the center of attention.\n\nWhat is Strapon Cum?\nHot, juicy young girls in sexy, kinky outfits play and fuck each other with\nbig strapon that squirts loads of hot gooey cum!! Dungeons &amp; slave training!\nGirl-on-girl bondage! Hours of young girls begging for mercy...and more!\n &lt;a href=&quot;\nhttp://bayimg.com/FabjEAAEj&quot; rel=&quot;nofollow&quot; target=&quot;_NEW&quot;&gt;\nhttp://bayimg.com/FabjEAAEj&lt;/a&gt;\n\nFormat                                   : Windows Media\nFile size                                : 944 MiB\nDuration                                 : 31mn 20s\nOverall bit rate mode                    : Constant\nOverall bit rate                         : 4 210 Kbps\nMaximum Overall bit rate                 : 4 229 Kbps\nPerformer                                : www.straponcum.com Â© 2008\nEncoded date                             : UTC 2008-06-15 08:32:32.437\nSfOriginalFPS                            : 250000\n\nVideo\nID                                       : 2\nFormat                                   : VC-1\nFormat profile                           : MP@HL\nCodec ID                                 : WMV3\nCodec ID/Info                            : Windows Media Video 9\nCodec ID/Hint                            : WMV3\nDescription of the codec                 : Windows Media Video 9 - Professional\nDuration                                 : 31mn 20s\nBit rate mode                            : Constant\nBit rate                                 : 4 146 Kbps\nWidth                                    : 960 pixels\nHeight                                   : 540 pixels\nDisplay aspect ratio                     : 16:9\nFrame rate                               : 25.000 fps\nBit depth                                : 8 bits\nScan type                                : Progressive\nCompression mode                         : Lossy\nBits/(Pixel*Frame)                       : 0.320\nStream size                              : 929 MiB (98%)\nLanguage                                 : English (US)\n\nAudio\nID                                       : 1\nFormat                                   : WMA\nFormat version                           : Version 2\nCodec ID                                 : 161\nCodec ID/Info                            : Windows Media Audio\nDescription of the codec                 : Windows Media Audio 9.2 -  48 kbps, 44 kHz, stereo (A/V) 1-pass CBR\nDuration                                 : 31mn 20s\nBit rate mode                            : Constant\nBit rate                                 : 48.0 Kbps\nChannel(s)                               : 2 channels\nSampling rate                            : 44.1 KHz\nBit depth                                : 16 bits\nStream size                              : 10.8 MiB (1%)\nLanguage                                 : English (US)\n\n","torrent":{"xt":"urn:btih:1794ab156af9b4c62557fdc5299595e61c908912","amp;dn":"Straponcum.com+-+3.+Room+Mates","amp;tr":["udp%3A%2F%2Ftracker.openbittorrent.com%3A80","udp%3A%2F%2Fopen.demonii.com%3A1337","udp%3A%2F%2Ftracker.coppersurfer.tk%3A6969","udp%3A%2F%2Fexodus.desync.com%3A6969"],"infoHash":"1794ab156af9b4c62557fdc5299595e61c908912","infoHashBuffer":{"type":"Buffer","data":[23,148,171,21,106,249,180,198,37,87,253,197,41,149,149,230,28,144,137,18]},"announce":[],"urlList":[]}}